<?xml version="1.0" encoding="UTF-8" standalone="no"?>
<!-- Created with Inkscape (http://www.inkscape.org/) -->

<svg
   xmlns:svg="http://www.w3.org/2000/svg"
   xmlns="http://www.w3.org/2000/svg"
   version="1.1"
   width="520"
   height="144.89999"
   id="svg2">
  <defs
     id="defs4" />
  <g
     transform="translate(585.87942,123.00978)"
     id="layer1">
    <g
       transform="matrix(1.4446416,0,0,1.4446416,270.50638,-19.731935)"
       id="g3168">
      <g
         id="text5517-6-7-8-8-9"
         style="font-size:32px;font-style:normal;font-variant:normal;font-weight:normal;font-stretch:normal;text-align:start;line-height:125%;writing-mode:lr-tb;text-anchor:start;fill:#000000;fill-opacity:1;stroke:none;font-family:Arial;-inkscape-font-specification:Arial">
        <path
           d="m -467.13467,-41.626823 8.79687,-22.90625 3.26563,0 9.375,22.90625 -3.45313,0 -2.67187,-6.9375 -9.57813,0 -2.51562,6.9375 z m 6.60937,-9.40625 7.76563,0 -2.39063,-6.34375 c -0.72918,-1.927066 -1.27084,-3.510398 -1.625,-4.75 -0.29168,1.468769 -0.70313,2.9271 -1.23437,4.375 z"
           id="path3162" />
        <path
           d="m -443.24405,-41.626823 0,-22.90625 7.89063,0 c 1.78123,2.2e-5 3.14061,0.109397 4.07812,0.328125 1.31249,0.302105 2.43228,0.84898 3.35938,1.640625 1.20831,1.020853 2.11196,2.325539 2.71093,3.914062 0.59894,1.588557 0.89842,3.40366 0.89844,5.445313 -2e-5,1.739593 -0.20315,3.281258 -0.60937,4.625 -0.40627,1.343755 -0.92711,2.455733 -1.5625,3.335937 -0.63544,0.880211 -1.33075,1.572919 -2.08594,2.078125 -0.75523,0.505209 -1.66668,0.888022 -2.73438,1.148438 -1.06772,0.260416 -2.29428,0.390625 -3.67968,0.390625 z m 3.03125,-2.703125 4.89063,0 c 1.5104,2e-6 2.6953,-0.140623 3.55468,-0.421875 0.85936,-0.281247 1.54426,-0.67708 2.05469,-1.1875 0.71873,-0.718745 1.27863,-1.68489 1.67969,-2.898438 0.40102,-1.213533 0.60154,-2.684886 0.60156,-4.414062 -2e-5,-2.39582 -0.39325,-4.236964 -1.17969,-5.523438 -0.78647,-1.28644 -1.7422,-2.148418 -2.86718,-2.585937 -0.81252,-0.31248 -2.11981,-0.46873 -3.92188,-0.46875 l -4.8125,0 z"
           id="path3164" />
        <path
           d="m -420.11905,-41.626823 0,-22.90625 8.64063,0 c 1.52082,2.2e-5 2.68227,0.07294 3.48437,0.21875 1.12499,0.187522 2.06769,0.544293 2.82813,1.070312 0.76039,0.526063 1.37237,1.263041 1.83593,2.210938 0.46353,0.947935 0.6953,1.9896 0.69532,3.125 -2e-5,1.947931 -0.61982,3.596366 -1.85938,4.945312 -1.2396,1.348968 -3.47918,2.023447 -6.71875,2.023438 l -5.875,0 0,9.3125 z m 3.03125,-12.015625 5.92188,0 c 1.95832,1.2e-5 3.34894,-0.364571 4.17187,-1.09375 0.8229,-0.729153 1.23436,-1.755194 1.23438,-3.078125 -2e-5,-0.958317 -0.24221,-1.778628 -0.72657,-2.460938 -0.48439,-0.682272 -1.12241,-1.132793 -1.91406,-1.351562 -0.51043,-0.135397 -1.45314,-0.203105 -2.82812,-0.203125 l -5.85938,0 z"
           id="path3166" />
      </g>
      <g
         id="text5517-3-0-76-9"
         style="font-size:32px;font-style:normal;font-variant:normal;font-weight:normal;font-stretch:normal;text-align:start;line-height:125%;writing-mode:lr-tb;text-anchor:start;fill:#ff0000;fill-opacity:1;stroke:none;font-family:Arial;-inkscape-font-specification:Arial">
        <path
           d="m -378.42038,-41.662861 8.79688,-22.90625 3.26562,0 9.375,22.90625 -3.45312,0 -2.67188,-6.9375 -9.57812,0 -2.51563,6.9375 z m 6.60938,-9.40625 7.76562,0 -2.39062,-6.34375 c -0.72918,-1.927066 -1.27085,-3.510397 -1.625,-4.75 -0.29168,1.468769 -0.70314,2.927101 -1.23438,4.375 z"
           id="path3155" />
        <path
           d="m -348.70163,-41.662861 0,-20.203125 -7.54687,0 0,-2.703125 18.15625,0 0,2.703125 -7.57813,0 0,20.203125 z"
           id="path3157" />
        <path
           d="m -334.96725,-41.662861 0,-22.90625 8.64062,0 c 1.52082,2.3e-5 2.68228,0.07294 3.48438,0.21875 1.12498,0.187523 2.06769,0.544293 2.82812,1.070313 0.7604,0.526062 1.37238,1.263041 1.83594,2.210937 0.46352,0.947935 0.69529,1.989601 0.69531,3.125 -2e-5,1.947931 -0.61981,3.596367 -1.85937,4.945313 -1.2396,1.348968 -3.47919,2.023446 -6.71875,2.023437 l -5.875,0 0,9.3125 z m 3.03125,-12.015625 5.92187,0 c 1.95832,1.2e-5 3.34894,-0.364571 4.17188,-1.09375 0.8229,-0.729153 1.23435,-1.755193 1.23437,-3.078125 -2e-5,-0.958316 -0.2422,-1.778628 -0.72656,-2.460937 -0.48439,-0.682273 -1.12241,-1.132793 -1.91406,-1.351563 -0.51043,-0.135396 -1.45314,-0.203105 -2.82813,-0.203125 l -5.85937,0 z"
           id="path3159" />
      </g>
      <path
         d="m -359.00211,-20.427492 9.39109,-8.24426 -1.30536,12.26693 -2.98623,-4.11628 -5.0995,0.0936 z"
         id="path2556-1-6-4-4-4-6-0"
         style="fill:#000000;fill-opacity:1;fill-rule:evenodd;stroke:#000000;stroke-width:1.93625712;stroke-linecap:round;stroke-linejoin:miter;stroke-miterlimit:10;stroke-opacity:1;stroke-dasharray:none" />
      <path
         d="m -330.07549,3.424213 -126.52487,0 0,-7.492e-4 126.52487,0 0,7.492e-4 z"
         id="rect4388-3-2-9-3"
         style="fill:none;stroke:#000000;stroke-width:2.00092387;stroke-linecap:round;stroke-linejoin:round;stroke-miterlimit:4;stroke-opacity:1;stroke-dasharray:none;stroke-dashoffset:0" />
      <path
         d="m -331.90067,-1.1169616 11.75247,4.2473 -11.37418,4.7759 2.16436,-4.6018 -2.54265,-4.4214 z"
         id="path2556-1-6-4-8-8-1-7"
         style="fill:#000000;fill-opacity:1;fill-rule:evenodd;stroke:#000000;stroke-width:1.93625712;stroke-linecap:round;stroke-linejoin:miter;stroke-miterlimit:10;stroke-opacity:1;stroke-dasharray:none" />
      <path
         d="m -239.48882,932.77565 c -37.23464,81.70515 -131.10685,116.54815 -209.66946,77.82415 -43.34699,-21.36601 -74.96133,-62.12118 -85.87247,-110.70125"
         transform="matrix(0.27238356,0,0,0.24011059,-289.4328,-243.39083)"
         id="path4565-09"
         style="fill:none;stroke:#000000;stroke-width:7.82048845;stroke-linecap:round;stroke-linejoin:round;stroke-miterlimit:4;stroke-opacity:1;stroke-dashoffset:0" />
      <g
         transform="translate(-46.14292,11.428571)"
         id="g3113">
        <g
           id="text3371-7-0-4-8-5-7-1-2-6-4-7-3-4"
           style="font-size:28px;font-style:normal;font-variant:normal;font-weight:normal;font-stretch:normal;text-align:start;line-height:125%;writing-mode:lr-tb;text-anchor:start;fill:#000000;fill-opacity:1;stroke:none;font-family:Arial;-inkscape-font-specification:Arial">
          <path
             d="m -539.73651,2.4291904 0,-20.0429684 8.88672,0 c 1.78644,2e-5 3.14451,0.180033 4.07422,0.540039 0.92967,0.360045 1.67251,0.995786 2.22851,1.907226 0.55597,0.911475 0.83397,1.918636 0.83399,3.021485 -2e-5,1.421888 -0.46031,2.6204543 -1.38086,3.5957028 -0.92059,0.9752704 -2.34247,1.5950614 -4.26563,1.859375 0.70181,0.3372483 1.23501,0.6699303 1.59961,0.9980468 0.77473,0.710945 1.50845,1.5996159 2.20117,2.6660157 l 3.48633,5.4550781 -3.33594,0 -2.65234,-4.1699219 c -0.77475,-1.2031196 -1.41277,-2.1236916 -1.91406,-2.7617187 -0.50132,-0.6380133 -0.95021,-1.0846274 -1.34668,-1.3398438 -0.3965,-0.2551998 -0.79982,-0.432934 -1.20996,-0.5332031 -0.30079,-0.063793 -0.79298,-0.095694 -1.47657,-0.095703 l -3.07617,0 0,8.9003906 z m 2.65234,-11.1972656 5.70117,0 c 1.21223,1.12e-5 2.16015,-0.1253142 2.84375,-0.3759766 0.68358,-0.2506392 1.20311,-0.6516805 1.5586,-1.2031252 0.35545,-0.551419 0.53319,-1.150702 0.5332,-1.797851 -10e-6,-0.947901 -0.34409,-1.727198 -1.03223,-2.337891 -0.68816,-0.61066 -1.77507,-0.915998 -3.26074,-0.916016 l -6.34375,0 z"
             id="path3135"
             style="fill:#000000" />
          <path
             d="m -520.81464,-3.5864346 0,-2.4746094 7.56055,0 0,2.4746094 z"
             id="path3137"
             style="fill:#000000" />
          <path
             d="m -510.99823,-7.3325284 c 0,-3.3268096 0.89323,-5.9312996 2.67969,-7.8134766 1.78645,-1.882142 4.09244,-2.823222 6.91797,-2.823242 1.85024,2e-5 3.51821,0.442077 5.0039,1.326172 1.48566,0.884133 2.61815,2.116879 3.39746,3.698242 0.77928,1.581394 1.16893,3.3746864 1.16895,5.3798828 -2e-5,2.03256 -0.41018,3.8509176 -1.23047,5.4550781 -0.82033,1.6041696 -1.98244,2.81868661 -3.48633,3.6435547 -1.50392,0.8248698 -3.12631,1.2373043 -4.86719,1.2373047 -1.88672,-4e-7 -3.57292,-0.4557291 -5.05859,-1.3671875 -1.48568,-0.91145642 -2.61133,-2.15559581 -3.37695,-3.7324219 -0.76563,-1.5768166 -1.14844,-3.2447837 -1.14844,-5.0039063 z m 2.73438,0.041016 c -1e-5,2.4153719 0.6494,4.3180392 1.94824,5.7080078 1.29882,1.38997657 2.92805,2.08496285 4.88769,2.08496092 1.99608,1.93e-6 3.63899,-0.70182028 4.92871,-2.10546872 1.2897,-1.4036404 1.93456,-3.3951749 1.93457,-5.9746094 -10e-6,-1.6314988 -0.27573,-3.0556512 -0.82714,-4.2724612 -0.55145,-1.216781 -1.35809,-2.16014 -2.41993,-2.830078 -1.06186,-0.669904 -2.25359,-1.004865 -3.57519,-1.004883 -1.87762,1.8e-5 -3.49317,0.644874 -4.84668,1.93457 -1.35352,1.289729 -2.03028,3.443047 -2.03027,6.4599616 z"
             id="path3139"
             style="fill:#000000" />
          <path
             d="m -488.42596,2.4291904 0,-20.0429684 7.56054,0 c 1.33072,2e-5 2.347,0.06382 3.04883,0.191406 0.98436,0.164082 1.80923,0.476256 2.47461,0.936523 0.66535,0.460305 1.20083,1.105161 1.60645,1.934571 0.40558,0.829443 0.60838,1.7409 0.60839,2.734375 -10e-6,1.704439 -0.54233,3.1468206 -1.62695,4.3271481 -1.08465,1.1803473 -3.04428,1.7705159 -5.87891,1.7705078 l -5.14062,0 0,8.1484375 z m 2.65234,-10.5136719 5.18164,0 c 1.71353,1.05e-5 2.93033,-0.3189996 3.65039,-0.9570312 0.72004,-0.6380088 1.08006,-1.5357943 1.08008,-2.6933593 -2e-5,-0.838527 -0.21193,-1.556299 -0.63574,-2.15332 -0.42385,-0.596989 -0.98211,-0.991194 -1.67481,-1.182618 -0.44662,-0.118472 -1.27149,-0.177716 -2.47461,-0.177734 l -5.12695,0 z"
             id="path3141"
             style="fill:#ff0000" />
          <path
             d="m -470.52948,-7.3325284 c 0,-3.3268096 0.89323,-5.9312996 2.67969,-7.8134766 1.78645,-1.882142 4.09244,-2.823222 6.91797,-2.823242 1.85024,2e-5 3.51821,0.442077 5.0039,1.326172 1.48566,0.884133 2.61815,2.116879 3.39746,3.698242 0.77928,1.581394 1.16893,3.3746864 1.16895,5.3798828 -2e-5,2.03256 -0.41018,3.8509176 -1.23047,5.4550781 -0.82033,1.6041696 -1.98244,2.81868661 -3.48633,3.6435547 -1.50392,0.8248698 -3.12631,1.2373043 -4.86719,1.2373047 -1.88672,-4e-7 -3.57292,-0.4557291 -5.05859,-1.3671875 -1.48568,-0.91145642 -2.61133,-2.15559581 -3.37695,-3.7324219 -0.76563,-1.5768166 -1.14844,-3.2447837 -1.14844,-5.0039063 z m 2.73438,0.041016 c -1e-5,2.4153719 0.6494,4.3180392 1.94824,5.7080078 1.29882,1.38997657 2.92805,2.08496285 4.88769,2.08496092 1.99608,1.93e-6 3.63899,-0.70182028 4.92871,-2.10546872 1.2897,-1.4036404 1.93456,-3.3951749 1.93457,-5.9746094 -10e-6,-1.6314988 -0.27573,-3.0556512 -0.82714,-4.2724612 -0.55145,-1.216781 -1.35809,-2.16014 -2.41993,-2.830078 -1.06186,-0.669904 -2.25359,-1.004865 -3.57519,-1.004883 -1.87762,1.8e-5 -3.49317,0.644874 -4.84668,1.93457 -1.35352,1.289729 -2.03028,3.443047 -2.03027,6.4599616 z"
             id="path3143"
             style="fill:#ff0000" />
        </g>
        <g
           id="text5517-3-9-2-2-8-4-4-4"
           style="font-size:19.60000038px;font-style:normal;font-variant:normal;font-weight:normal;font-stretch:normal;text-align:start;line-height:100%;writing-mode:lr-tb;text-anchor:start;fill:#ff0000;fill-opacity:1;stroke:none;font-family:Arial;-inkscape-font-specification:Arial">
          <path
             d="m -431.12825,-11.18851 0,1.6556645 -9.27363,0 c -0.0128,-0.4147131 0.0542,-0.8134755 0.20098,-1.1962895 0.23606,-0.631638 0.61409,-1.253708 1.13408,-1.866211 0.51998,-0.612496 1.27125,-1.320698 2.25381,-2.124609 1.52486,-1.250514 2.55526,-2.241041 3.09121,-2.971582 0.53593,-0.730525 0.8039,-1.421182 0.8039,-2.071973 0,-0.682671 -0.24405,-1.258484 -0.73212,-1.727441 -0.4881,-0.468933 -1.12452,-0.703406 -1.90928,-0.703418 -0.82943,1.2e-5 -1.49297,0.24884 -1.99063,0.746484 -0.49766,0.497668 -0.74967,1.18673 -0.75605,2.067188 l -1.77051,-0.181836 c 0.12122,-1.320692 0.57741,-2.327169 1.36856,-3.019434 0.79114,-0.692239 1.85344,-1.038365 3.18691,-1.038379 1.34622,1.4e-5 2.41171,0.373256 3.19648,1.119727 0.78476,0.746496 1.17714,1.671626 1.17715,2.77539 -1e-5,0.561468 -0.11485,1.113356 -0.34453,1.655665 -0.2297,0.542325 -0.61091,1.113353 -1.14365,1.713086 -0.53276,0.599745 -1.41801,1.422791 -2.65576,2.46914 -1.0336,0.867712 -1.69714,1.456286 -1.99063,1.765723 -0.29349,0.309442 -0.53594,0.620477 -0.72734,0.933105 z"
             id="path3146"
             style="fill:#ff0000" />
          <path
             d="m -420.10325,-15.648275 0,1.148437 -8.20175,0 0,-1.148437 z"
             id="path3148"
             style="font-size:19.60000038px;font-style:normal;font-variant:normal;font-weight:normal;font-stretch:normal;text-align:start;line-height:100%;writing-mode:lr-tb;text-anchor:start;fill:#ff0000;font-family:Courier New;-inkscape-font-specification:Courier New" />
        </g>
        <g
           id="text5517-3-9-2-2-8-4-4-4-1"
           style="font-size:19.60000038px;font-style:normal;font-variant:normal;font-weight:normal;font-stretch:normal;text-align:start;line-height:100%;writing-mode:lr-tb;text-anchor:start;fill:#000000;fill-opacity:1;stroke:none;font-family:Arial;-inkscape-font-specification:Arial">
          <path
             d="m -448.89753,6.5091129 1.72265,-0.2296875 c 0.19779,0.9761748 0.53434,1.6795921 1.00967,2.1102539 0.47532,0.4306655 1.05432,0.6459973 1.73701,0.6459961 0.81028,1.2e-6 1.49456,-0.2807277 2.05283,-0.8421875 0.55826,-0.5614558 0.8374,-1.2568978 0.83741,-2.0863282 -10e-6,-0.7911409 -0.25841,-1.4435166 -0.7752,-1.9571289 -0.5168,-0.5136002 -1.17396,-0.7704034 -1.97148,-0.7704102 -0.3254,6.8e-6 -0.73054,0.063809 -1.21543,0.1914063 l 0.1914,-1.5121094 c 0.11484,0.012768 0.20736,0.019149 0.27754,0.019141 0.73372,8.1e-6 1.39407,-0.1913979 1.98106,-0.5742188 0.58697,-0.3828034 0.88046,-0.97297208 0.88047,-1.77050782 -10e-6,-0.63162953 -0.21375,-1.15480608 -0.64122,-1.56953128 -0.42748,-0.4147011 -0.97936,-0.6220577 -1.65566,-0.6220703 -0.66993,1.26e-5 -1.22819,0.2105593 -1.6748,0.6316406 -0.44662,0.4211054 -0.73373,1.05274539 -0.86133,1.89492192 l -1.72266,-0.30625001 c 0.21055,-1.15480611 0.68906,-2.04962951 1.43555,-2.68447271 0.74648,-0.634817 1.6748,-0.952232 2.78496,-0.9522461 0.76562,1.41e-5 1.47063,0.1643043 2.11504,0.4928711 0.64439,0.328594 1.13726,0.7768032 1.47861,1.3446289 0.34133,0.5678503 0.512,1.17077936 0.51201,1.80878913 -1e-5,0.60612964 -0.1627,1.15801712 -0.48808,1.65566407 -0.3254,0.4976646 -0.80711,0.8932371 -1.44512,1.1867188 0.82942,0.1914137 1.47382,0.5885812 1.9332,1.1915039 0.45937,0.6029355 0.68906,1.3573944 0.68907,2.263379 -10e-6,1.2250029 -0.44663,2.2633808 -1.33985,3.1151368 -0.89323,0.8517573 -2.02253,1.2776363 -3.38789,1.2776363 -1.23138,0 -2.25381,-0.366862 -3.06728,-1.1005856 -0.81348,-0.7337223 -1.27764,-1.6843725 -1.39248,-2.8519531 z"
             id="path3151"
             style="fill:#ff0000" />
        </g>
      </g>
      <g
         id="text3371-7-0-4-8-5-7-1-2-6-4-7-3-4-4"
         style="font-size:28px;font-style:normal;font-variant:normal;font-weight:normal;font-stretch:normal;text-align:start;line-height:125%;writing-mode:lr-tb;text-anchor:start;fill:#000000;fill-opacity:1;stroke:none;font-family:Arial;-inkscape-font-specification:Arial">
        <path
           d="m -306.88806,12.891896 0,-20.0429685 8.88672,0 c 1.78644,2e-5 3.14451,0.1800329 4.07422,0.5400391 0.92967,0.3600451 1.67251,0.9957867 2.22851,1.9072265 0.55597,0.911475 0.83397,1.9186355 0.83399,3.0214844 -2e-5,1.42188815 -0.46031,2.62045466 -1.38086,3.5957031 -0.92059,0.9752704 -2.34247,1.5950615 -4.26563,1.859375 0.70181,0.3372484 1.23501,0.6699303 1.59961,0.9980469 0.77473,0.7109449 1.50845,1.5996159 2.20117,2.6660156 l 3.48633,5.4550779 -3.33594,0 -2.65234,-4.1699216 c -0.77475,-1.2031197 -1.41277,-2.1236917 -1.91406,-2.7617188 -0.50132,-0.6380132 -0.95021,-1.0846274 -1.34668,-1.3398437 -0.3965,-0.2551998 -0.79982,-0.432934 -1.20996,-0.5332032 -0.30079,-0.063793 -0.79298,-0.095694 -1.47657,-0.095703 l -3.07617,0 0,8.9003903 z m 2.65234,-11.1972654 5.70117,0 c 1.21223,1.12e-5 2.16015,-0.1253142 2.84375,-0.3759765 0.68358,-0.2506393 1.20311,-0.65168052 1.5586,-1.20312504 0.35545,-0.55141896 0.53319,-1.15070226 0.5332,-1.79785156 -1e-5,-0.9479011 -0.34409,-1.7271972 -1.03223,-2.3378906 -0.68816,-0.6106596 -1.77507,-0.9159978 -3.26074,-0.9160157 l -6.34375,0 z"
           id="path3126"
           style="fill:#000000" />
        <path
           d="m -287.96619,6.8762712 0,-2.4746093 7.56055,0 0,2.4746093 z"
           id="path3128"
           style="fill:#000000" />
        <path
           d="m -278.14978,3.1301775 c 0,-3.32680983 0.89323,-5.9312994 2.67969,-7.8134766 1.78645,-1.882142 4.09244,-2.8232218 6.91797,-2.8232422 1.85024,2.04e-5 3.51821,0.4420773 5.0039,1.3261719 1.48566,0.8841328 2.61815,2.116879 3.39746,3.6982422 0.77928,1.58139401 1.16893,3.37468649 1.16895,5.3798828 -2e-5,2.0325601 -0.41018,3.8509176 -1.23047,5.4550781 -0.82033,1.6041696 -1.98244,2.8186863 -3.48633,3.6435543 -1.50392,0.82487 -3.12631,1.237305 -4.86719,1.237305 -1.88672,0 -3.57292,-0.455729 -5.05859,-1.367187 -1.48568,-0.911457 -2.61133,-2.1555962 -3.37695,-3.7324223 -0.76563,-1.5768165 -1.14844,-3.2447836 -1.14844,-5.0039062 z m 2.73437,0.041016 c 0,2.4153719 0.64941,4.3180393 1.94825,5.7080078 1.29882,1.3899767 2.92805,2.0849627 4.88769,2.0849607 1.99608,2e-6 3.63899,-0.70182 4.92871,-2.1054685 1.2897,-1.4036404 1.93456,-3.3951748 1.93457,-5.9746094 -1e-5,-1.6314987 -0.27573,-3.05565095 -0.82714,-4.2724609 -0.55145,-1.2167814 -1.35809,-2.1601398 -2.41993,-2.8300781 -1.06186,-0.6699041 -2.25359,-1.0048647 -3.57519,-1.0048828 -1.87762,1.81e-5 -3.49317,0.6448742 -4.84668,1.9345703 -1.35352,1.2897284 -2.03028,3.44304658 -2.03028,6.4599609 z"
           id="path3130"
           style="fill:#000000" />
        <path
           d="m -255.49548,12.891896 0,-20.0429685 2.65234,0 0,8.2304687 10.41797,0 0,-8.2304687 2.65234,0 0,20.0429685 -2.65234,0 0,-9.4472654 -10.41797,0 0,9.4472654 z"
           id="path3132"
           style="fill:#000000" />
      </g>
    </g>
  </g>
</svg>
